<svg viewBox="0 0 320 300" fill="none" xmlns="http://www.w3.org/2000/svg">
<path d="M159.706 284.449L160.386 283.768L161.14 284.522L166.444 279.219L279.581 166.082C313.752 131.911 313.752 76.5091 279.581 42.3383C246.913 9.6702 194.84 8.23348 160.465 38.0281C126.091 8.15814 73.96 9.57051 41.2652 42.2652C7.09437 76.4361 7.09437 131.838 41.2652 166.009L154.402 279.146L159.706 284.449Z" fill="#FFE4E4" stroke="#C11F1F" stroke-width="15"/>
<mask id="mask0_2_9" style="mask-type:alpha" maskUnits="userSpaceOnUse" x="-1" y="-1" width="161" height="281">
<rect x="-1" y="-1" width="161" height="281" fill="#D9D9D9"/>
</mask>
<g mask="url(#mask0_2_9)">
<path d="M159.706 284.449L160.386 283.768L161.14 284.522L166.444 279.219L279.581 166.082C313.752 131.911 313.752 76.5091 279.581 42.3383C246.913 9.6702 194.84 8.23348 160.465 38.0281C126.091 8.15814 73.96 9.57051 41.2652 42.2652C7.09437 76.4361 7.09437 131.838 41.2652 166.009L154.402 279.146L159.706 284.449Z" fill="#C11F1F" stroke="#C11F1F" stroke-width="15"/>
</g>
</svg>
