<svg width="150" height="150" viewBox="0 0 150 150" fill="none" xmlns="http://www.w3.org/2000/svg">
<path d="M75.2424 135.838L75.5301 135.551L75.8485 135.869L79.3841 132.334L127.182 84.536C142.333 69.3844 142.333 44.8189 127.182 29.6673C113.072 15.5571 90.7972 14.5873 75.5648 26.7576C60.3313 14.5548 38.0312 15.5144 23.9092 29.6364C8.75757 44.788 8.75757 69.3536 23.9092 84.5052L71.7069 132.303L75.2424 135.838Z" stroke="#DB2777" stroke-width="10"/>
<path d="M59.0009 83L51.4384 58.3574H51.245C51.2736 58.9447 51.3166 59.8327 51.3739 61.0215C51.4455 62.196 51.51 63.4492 51.5673 64.7812C51.6246 66.1133 51.6532 67.3164 51.6532 68.3906V83H45.702V51.5898H54.7684L62.202 75.6094H62.3309L70.2157 51.5898H79.2821V83H73.0731V68.1328C73.0731 67.1445 73.0874 66.0059 73.1161 64.7168C73.1591 63.4277 73.2092 62.2031 73.2665 61.043C73.3238 59.8685 73.3667 58.9876 73.3954 58.4004H73.202L65.1024 83H59.0009ZM107.511 74.2773C107.511 76.1393 107.06 77.7578 106.157 79.1328C105.255 80.5078 103.937 81.5677 102.204 82.3125C100.485 83.0573 98.3943 83.4297 95.9308 83.4297C94.8422 83.4297 93.7752 83.3581 92.7296 83.2148C91.6983 83.0716 90.7029 82.8639 89.7433 82.5918C88.798 82.3053 87.8956 81.9544 87.0362 81.5391V75.3516C88.5258 76.0104 90.0727 76.6048 91.6769 77.1348C93.281 77.6647 94.8709 77.9297 96.4464 77.9297C97.5349 77.9297 98.4086 77.7865 99.0675 77.5C99.7407 77.2135 100.228 76.8197 100.528 76.3184C100.829 75.8171 100.98 75.2441 100.98 74.5996C100.98 73.8118 100.715 73.1387 100.185 72.5801C99.6547 72.0215 98.9243 71.4987 97.9933 71.0117C97.0766 70.5247 96.0382 70.002 94.878 69.4434C94.1476 69.0996 93.3526 68.6842 92.4933 68.1973C91.6339 67.696 90.8175 67.0872 90.0441 66.3711C89.2706 65.6549 88.6332 64.7884 88.1319 63.7715C87.645 62.7402 87.4015 61.5085 87.4015 60.0762C87.4015 58.1999 87.8312 56.5957 88.6905 55.2637C89.5499 53.9316 90.7745 52.9147 92.3644 52.2129C93.9685 51.4967 95.8592 51.1387 98.0362 51.1387C99.6691 51.1387 101.223 51.332 102.698 51.7188C104.188 52.0911 105.742 52.6354 107.36 53.3516L105.212 58.5293C103.765 57.9421 102.469 57.4909 101.323 57.1758C100.178 56.8464 99.0102 56.6816 97.8214 56.6816C96.9907 56.6816 96.2817 56.8177 95.6944 57.0898C95.1072 57.3477 94.6632 57.7201 94.3624 58.207C94.0616 58.6797 93.9112 59.2311 93.9112 59.8613C93.9112 60.6061 94.1261 61.2363 94.5558 61.752C94.9998 62.2533 95.6586 62.7402 96.5323 63.2129C97.4204 63.6855 98.5232 64.237 99.8409 64.8672C101.445 65.6263 102.813 66.4212 103.944 67.252C105.09 68.0684 105.971 69.0352 106.587 70.1523C107.203 71.2552 107.511 72.6302 107.511 74.2773Z" fill="#DB2777" style="mix-blend-mode:darken"/>
</svg>
