<?xml version="1.0" standalone="no"?>
<!DOCTYPE svg PUBLIC "-//W3C//DTD SVG 20010904//EN"
 "http://www.w3.org/TR/2001/REC-SVG-20010904/DTD/svg10.dtd">
<svg version="1.0" xmlns="http://www.w3.org/2000/svg"
 width="700.000000pt" height="700.000000pt" viewBox="0 0 700.000000 700.000000"
 preserveAspectRatio="xMidYMid meet">
<metadata>
Created by potrace 1.14, written by Peter Selinger 2001-2017
</metadata>
<g transform="translate(0.000000,700.000000) scale(0.100000,-0.100000)"
fill="#000000" stroke="none">
<path d="M2250 6377 c-3 -3 -39 -7 -80 -10 -319 -25 -748 -197 -1020 -409
-435 -339 -723 -849 -785 -1388 -11 -92 -13 -340 -3 -430 45 -432 215 -826
496 -1148 99 -113 2647 -2654 2666 -2658 13 -2 374 353 1335 1314 724 724
1345 1353 1380 1397 176 219 341 539 387 750 1 6 7 30 14 55 7 25 14 56 16 70
3 14 9 50 15 80 27 149 32 445 10 605 -44 316 -189 687 -355 908 -151 201
-327 378 -472 477 -164 112 -218 143 -359 207 -116 53 -299 114 -400 134 -183
37 -259 44 -445 44 -232 0 -378 -22 -592 -86 -154 -47 -399 -156 -458 -204 -8
-7 -29 -20 -45 -28 -30 -15 -33 -14 -85 20 -155 98 -446 219 -601 248 -13 3
-35 7 -49 10 -32 7 -54 11 -110 20 -25 4 -54 9 -65 12 -26 6 -390 15 -395 10z
m305 -472 c136 -12 345 -65 460 -117 154 -70 260 -135 410 -255 49 -40 95 -73
101 -73 6 0 51 32 100 71 229 185 453 295 712 349 125 27 383 37 507 21 465
-62 864 -308 1122 -692 51 -76 61 -93 108 -189 51 -104 114 -294 131 -395 2
-16 9 -55 14 -85 8 -54 7 -380 -3 -430 -2 -14 -10 -54 -17 -90 -18 -100 -83
-286 -133 -387 -51 -101 -135 -229 -206 -313 -25 -30 -557 -567 -1182 -1192
-765 -765 -1142 -1136 -1154 -1134 -18 3 -2211 2188 -2319 2311 -159 182 -267
384 -330 616 -26 97 -30 114 -46 221 -9 62 -6 369 4 418 3 14 7 36 9 50 11 73
56 233 83 300 119 287 297 516 549 708 68 51 308 182 335 182 6 0 18 4 28 10
32 18 137 49 240 70 166 33 300 41 477 25z"/>
<path d="M4500 4609 c-273 -24 -431 -189 -418 -438 6 -111 36 -179 110 -253
76 -76 82 -80 258 -169 95 -48 179 -98 207 -123 42 -38 46 -47 50 -96 4 -46 1
-61 -19 -90 -38 -57 -86 -74 -203 -73 -105 1 -180 20 -343 84 -40 16 -74 29
-76 29 -2 0 -4 -65 -4 -144 l-1 -144 72 -26 c64 -23 126 -39 207 -51 14 -2 77
-5 140 -5 348 -2 548 169 534 456 -6 137 -66 233 -202 321 -29 18 -116 67
-195 107 -180 92 -180 92 -210 139 -29 44 -30 110 -3 153 61 92 246 88 488
-11 18 -7 20 -4 82 148 l35 88 -22 8 c-12 5 -38 16 -58 25 -19 8 -71 24 -115
36 -121 31 -199 39 -314 29z"/>
<path d="M2158 4592 l-26 -3 0 -730 1 -729 31 -1 c37 -1 215 -1 235 0 11 1 12
86 8 504 -3 276 -8 536 -11 577 -2 41 -1 68 3 60 8 -14 78 -235 86 -270 2 -8
10 -35 18 -60 9 -25 47 -148 86 -275 133 -438 161 -528 166 -534 6 -6 241 -8
267 -3 14 3 62 138 205 573 103 313 191 569 195 569 4 0 4 -17 0 -37 -3 -21
-7 -279 -7 -573 l0 -535 130 0 c72 0 136 1 143 3 9 3 12 159 12 733 l0 729
-27 1 c-91 2 -395 0 -397 -3 -2 -2 -21 -59 -43 -128 -166 -510 -326 -990 -329
-988 -1 2 -51 159 -109 348 -59 190 -117 379 -130 420 -13 41 -42 137 -66 213
-40 129 -43 137 -68 138 -100 3 -351 3 -373 1z"/>
</g>
</svg>
