<svg width="1440" height="874" viewBox="0 0 1440 874" fill="none" xmlns="http://www.w3.org/2000/svg">
<path d="M179.582 488.581L179.979 488.184L180.418 488.623L183.954 485.088L249.881 419.16C270.04 399.002 270.04 366.319 249.881 346.161C230.74 327.02 200.306 326.054 180.025 343.265C159.745 326.01 129.276 326.961 110.119 346.119C89.9605 366.277 89.9605 398.959 110.119 419.118L176.046 485.045L179.582 488.581Z" stroke="#C084FC" stroke-opacity="0.08" stroke-width="10" class="float1" />
<path d="M1315.58 335.581L1315.98 335.184L1316.42 335.623L1319.95 332.088L1385.88 266.16C1406.04 246.002 1406.04 213.319 1385.88 193.161C1366.74 174.02 1336.31 173.054 1316.03 190.265C1295.74 173.01 1265.28 173.961 1246.12 193.119C1225.96 213.277 1225.96 245.959 1246.12 266.118L1312.05 332.045L1315.58 335.581Z" stroke="#DB2777" stroke-opacity="0.08" stroke-width="10" class="float2" />
<path d="M820.582 269.581L820.979 269.184L821.418 269.623L824.954 266.088L890.881 200.16C911.04 180.002 911.04 147.319 890.881 127.161C871.74 108.02 841.306 107.054 821.025 124.265C800.745 107.01 770.276 107.961 751.119 127.119C730.96 147.277 730.96 179.959 751.119 200.118L817.046 266.045L820.582 269.581Z" stroke="#C084FC" stroke-opacity="0.08" stroke-width="10" class="float3" />
<path d="M685.582 780.581L685.979 780.184L686.418 780.623L689.954 777.088L755.881 711.16C776.04 691.002 776.04 658.319 755.881 638.161C736.74 619.02 706.306 618.054 686.025 635.265C665.745 618.01 635.276 618.961 616.119 638.119C595.96 658.277 595.96 690.959 616.119 711.118L682.046 777.045L685.582 780.581Z" stroke="#DB2777" stroke-opacity="0.08" stroke-width="10" class="float1"/>
<path d="M564.582 728.581L564.979 728.184L565.418 728.623L568.954 725.088L634.881 659.16C655.04 639.002 655.04 606.319 634.881 586.161C615.74 567.02 585.306 566.054 565.025 583.265C544.745 566.01 514.276 566.961 495.119 586.119C474.96 606.277 474.96 638.959 495.119 659.118L561.046 725.045L564.582 728.581Z" stroke="#DB2777" stroke-opacity="0.08" stroke-width="10" class="float2"/>
<path d="M194.582 839.581L194.979 839.184L195.418 839.623L198.954 836.088L264.881 770.16C285.04 750.002 285.04 717.319 264.881 697.161C245.74 678.02 215.306 677.054 195.025 694.265C174.745 677.01 144.276 677.961 125.119 697.119C104.96 717.277 104.96 749.959 125.119 770.118L191.046 836.045L194.582 839.581Z" stroke="#C084FC" stroke-opacity="0.08" stroke-width="10" class="float3"/>
<path d="M99.582 866.581L99.9787 866.184L100.418 866.623L103.954 863.088L169.881 797.16C190.04 777.002 190.04 744.319 169.881 724.161C150.74 705.02 120.306 704.054 100.025 721.265C79.7445 704.01 49.2757 704.961 30.1186 724.119C9.96048 744.277 9.96047 776.959 30.1186 797.118L96.0464 863.045L99.582 866.581Z" stroke="#DB2777" stroke-opacity="0.08" stroke-width="10" class="float1"/>
<path d="M456.582 234.581L456.979 234.184L457.418 234.623L460.954 231.088L526.881 165.16C547.04 145.002 547.04 112.319 526.881 92.1611C507.74 73.0198 477.306 72.0543 457.025 89.2648C436.745 72.0102 406.276 72.9614 387.119 92.1186C366.96 112.277 366.96 144.959 387.119 165.118L453.046 231.045L456.582 234.581Z" stroke="#C084FC" stroke-opacity="0.08" stroke-width="10" class="float2"/>
<path d="M354.582 182.581L354.979 182.184L355.418 182.623L358.954 179.088L424.881 113.16C445.04 93.002 445.04 60.3192 424.881 40.1611C405.74 21.0198 375.306 20.0543 355.025 37.2648C334.745 20.0102 304.276 20.9614 285.119 40.1186C264.96 60.2767 264.96 92.9594 285.119 113.118L351.046 179.045L354.582 182.581Z" stroke="#DB2777" stroke-opacity="0.08" stroke-width="10" class="float3"/>
<path d="M1210.58 387.581L1210.98 387.184L1211.42 387.623L1214.95 384.088L1280.88 318.16C1301.04 298.002 1301.04 265.319 1280.88 245.161C1261.74 226.02 1231.31 225.054 1211.03 242.265C1190.74 225.01 1160.28 225.961 1141.12 245.119C1120.96 265.277 1120.96 297.959 1141.12 318.118L1207.05 384.045L1210.58 387.581Z" stroke="#C084FC" stroke-opacity="0.08" stroke-width="10" class="float1"/>
<path d="M920.582 216.581L920.979 216.184L921.418 216.623L924.954 213.088L990.881 147.16C1011.04 127.002 1011.04 94.3192 990.881 74.1611C971.74 55.0198 941.306 54.0543 921.025 71.2648C900.745 54.0102 870.276 54.9614 851.119 74.1186C830.96 94.2767 830.96 126.959 851.119 147.118L917.046 213.045L920.582 216.581Z" stroke="#C084FC" stroke-opacity="0.08" stroke-width="10" class="float2"/>
<path d="M274.582 533.581L274.979 533.184L275.418 533.623L278.954 530.088L344.881 464.16C365.04 444.002 365.04 411.319 344.881 391.161C325.74 372.02 295.306 371.054 275.025 388.265C254.745 371.01 224.276 371.961 205.119 391.119C184.96 411.277 184.96 443.959 205.119 464.118L271.046 530.045L274.582 533.581Z" stroke="#DB2777" stroke-opacity="0.08" stroke-width="10" class="float3"/>
<path d="M1263.58 679.581L1263.98 679.184L1264.42 679.623L1267.95 676.088L1333.88 610.16C1354.04 590.002 1354.04 557.319 1333.88 537.161C1314.74 518.02 1284.31 517.054 1264.03 534.265C1243.74 517.01 1213.28 517.961 1194.12 537.119C1173.96 557.277 1173.96 589.959 1194.12 610.118L1260.05 676.045L1263.58 679.581Z" stroke="#C084FC" stroke-opacity="0.08" stroke-width="10" class="float1"/>
<path d="M1161.58 634.581L1161.98 634.184L1162.42 634.623L1165.95 631.088L1231.88 565.16C1252.04 545.002 1252.04 512.319 1231.88 492.161C1212.74 473.02 1182.31 472.054 1162.03 489.265C1141.74 472.01 1111.28 472.961 1092.12 492.119C1071.96 512.277 1071.96 544.959 1092.12 565.118L1158.05 631.045L1161.58 634.581Z" stroke="#DB2777" stroke-opacity="0.08" stroke-width="10" class="float2"/>

<style>
  @keyframes float1 {
      0%{transform: translate(0, 0)}
      50%{transform: translate(-10px, 0)}
      100%{transform: translate(0, 0)}
  }

  .float1 {
      animation: float1 5s infinite;
  }

  @keyframes float2 {
      0%{transform: translate(0, 0)}
      50%{transform: translate(-5px, -5px)}
      100%{transform: translate(0, 0)}
  }

  .float2 {
      animation: float2 4s infinite;
  }

  @keyframes float3 {
      0%{transform: translate(0, 0)}
      50%{transform: translate(0, -10px)}
      100%{transform: translate(0, 0)}
  }

  .float3 {
      animation: float3 6s infinite;
  }
</style>
</svg>
